<svg width="19" height="21" viewBox="0 0 19 21" fill="none" xmlns="http://www.w3.org/2000/svg">
<path d="M15.074 3.29C14.2459 2.37945 13.7894 1.2103 13.7895 0H10.0453V14.4667C10.017 15.2497 9.67391 15.9916 9.08838 16.5357C8.50286 17.0799 7.72069 17.3838 6.90689 17.3833C5.18622 17.3833 3.75638 16.03 3.75638 14.35C3.75638 12.3433 5.76786 10.8383 7.83992 11.4567V7.77C3.65944 7.23333 0 10.36 0 14.35C0 18.235 3.34439 21 6.89477 21C10.6996 21 13.7895 18.025 13.7895 14.35V7.01167C15.3078 8.06149 17.1307 8.62475 19 8.62167V5.01667C19 5.01667 16.7219 5.12167 15.074 3.29Z" fill="black"/>
</svg>
